HIERARCHY
ROOT joint_0
{
	OFFSET 0.000000 0.000000 0.000000
	CHANNELS 6 Xposition Yposition Zposition Zrotation Yrotation Xrotation 
	JOINT joint_1
	{
		OFFSET 6.579712 -2.778931 100.531982
		CHANNELS 3 Zrotation Yrotation Xrotation
		JOINT joint_2
		{
			OFFSET -3.313232 -1.302856 91.974976
			CHANNELS 3 Zrotation Yrotation Xrotation
			JOINT joint_3
			{
				OFFSET -3.421509 -1.641846 91.864014
				CHANNELS 3 Zrotation Yrotation Xrotation
				JOINT joint_4
				{
					OFFSET 7.697388 -4.642578 123.278931
					CHANNELS 3 Zrotation Yrotation Xrotation
					JOINT joint_5
					{
						OFFSET 24.842529 -5.941528 79.695068
						CHANNELS 3 Zrotation Yrotation Xrotation
						End Site
						{
							OFFSET 0.000000 0.000000 0.000000
						}
					}
				}
				JOINT joint_6
				{
					OFFSET -0.159668 -29.112976 68.364014
					CHANNELS 3 Zrotation Yrotation Xrotation
					JOINT joint_7
					{
						OFFSET -18.356079 -115.987061 -20.069092
						CHANNELS 3 Zrotation Yrotation Xrotation
						JOINT joint_8
						{
							OFFSET 31.719482 -11.733276 -267.170898
							CHANNELS 3 Zrotation Yrotation Xrotation
							JOINT joint_9
							{
								OFFSET 29.329956 -5.879517 -234.654053
								CHANNELS 3 Zrotation Yrotation Xrotation
								End Site
								{
									OFFSET 0.000000 0.000000 0.000000
								}
							}
						}
					}
				}
				JOINT joint_10
				{
					OFFSET 8.802979 23.897949 69.798950
					CHANNELS 3 Zrotation Yrotation Xrotation
					JOINT joint_11
					{
						OFFSET 21.159058 115.524292 -19.981934
						CHANNELS 3 Zrotation Yrotation Xrotation
						JOINT joint_12
						{
							OFFSET 18.809204 5.403442 -268.593018
							CHANNELS 3 Zrotation Yrotation Xrotation
							JOINT joint_13
							{
								OFFSET 20.807861 0.421265 -235.639038
								CHANNELS 3 Zrotation Yrotation Xrotation
								End Site
								{
									OFFSET 0.000000 0.000000 0.000000
								}
							}
						}
					}
				}
			}
		}
	}
	JOINT joint_14
	{
		OFFSET -9.713379 -79.513916 -99.348022
		CHANNELS 3 Zrotation Yrotation Xrotation
		JOINT joint_15
		{
			OFFSET -40.607788 -6.518372 -502.938019
			CHANNELS 3 Zrotation Yrotation Xrotation
			JOINT joint_16
			{
				OFFSET -19.807617 -7.437378 -399.590012
				CHANNELS 3 Zrotation Yrotation Xrotation
				JOINT joint_17
				{
					OFFSET 171.701660 -44.751282 -77.782000
					CHANNELS 3 Zrotation Yrotation Xrotation
					End Site
					{
						OFFSET 0.000000 0.000000 0.000000
					}
				}
			}
		}
	}
	JOINT joint_18
	{
		OFFSET 17.854858 79.618652 -98.128052
		CHANNELS 3 Zrotation Yrotation Xrotation
		JOINT joint_19
		{
			OFFSET -24.848877 16.861816 -503.722992
			CHANNELS 3 Zrotation Yrotation Xrotation
			JOINT joint_20
			{
				OFFSET -30.162476 14.470093 -398.750008
				CHANNELS 3 Zrotation Yrotation Xrotation
				JOINT joint_21
				{
					OFFSET 176.096680 -10.987549 -80.021000
					CHANNELS 3 Zrotation Yrotation Xrotation
					End Site
					{
						OFFSET 0.000000 0.000000 0.000000
					}
				}
			}
		}
	}
}
MOTION
Frames: 10
Frame Time: 0.016667
-1683.008667 860.653198 1097.561035 12.533015 0.606167 0.023507 -0.495237 -1.923852 -0.823766 -0.426397 0.304691 0.114120 -0.448234 -0.398392 -0.131070 0.363830 1.616845 -0.806357 0.000000 0.000000 0.000000 2.002745 3.933746 0.683326 -0.089111 4.132073 1.782703 -0.096251 -4.011238 -1.458785 0.000000 0.000000 0.000000 0.343513 0.718911 2.442127 -0.146486 1.553817 -2.592724 0.034288 -1.263639 0.640380 0.000000 0.000000 0.000000 0.834761 0.201055 -0.456076 0.617576 0.693259 2.153511 0.839917 -2.590148 -0.295137 0.000000 0.000000 0.000000 0.055200 1.560715 -0.355756 0.060308 -0.412746 -1.402430 -0.076782 -1.710133 -0.141211 0.000000 0.000000 0.000000 
-1683.291870 860.606567 1097.553955 12.543737 0.591247 0.012162 -0.495517 -1.943760 -0.822541 -0.426010 0.306461 0.113056 -0.447873 -0.400819 -0.131242 0.363890 1.626905 -0.804236 0.000000 0.000000 0.000000 2.009074 3.950246 0.694720 -0.089187 4.150905 1.787378 -0.095959 -4.006589 -1.456835 0.000000 0.000000 0.000000 0.353653 0.744579 2.455624 -0.145153 1.577645 -2.578003 0.035259 -1.259200 0.651245 0.000000 0.000000 0.000000 0.829978 0.201870 -0.448898 0.612700 0.690528 2.162110 0.835306 -2.575987 -0.293541 0.000000 0.000000 0.000000 0.051959 1.556908 -0.342697 0.058026 -0.406780 -1.405228 -0.079438 -1.710713 -0.142455 0.000000 0.000000 0.000000 
-1683.574219 860.555054 1097.550049 12.554608 0.577683 0.001755 -0.497111 -1.965276 -0.823757 -0.426779 0.307733 0.113105 -0.448700 -0.403506 -0.131293 0.364913 1.639064 -0.804783 0.000000 0.000000 0.000000 2.019358 3.967076 0.704438 -0.089163 4.170185 1.793802 -0.095694 -4.003457 -1.455153 0.000000 0.000000 0.000000 0.366345 0.771213 2.468973 -0.143847 1.601911 -2.562994 0.035928 -1.256618 0.659006 0.000000 0.000000 0.000000 0.825177 0.200586 -0.442207 0.607749 0.689140 2.170425 0.830646 -2.562184 -0.292060 0.000000 0.000000 0.000000 0.048460 1.551437 -0.329763 0.055570 -0.400795 -1.409156 -0.082288 -1.709668 -0.143687 0.000000 0.000000 0.000000 
-1683.857056 860.495300 1097.550049 12.566914 0.564387 -0.007899 -0.499189 -1.989246 -0.826543 -0.427872 0.311820 0.112978 -0.449949 -0.408524 -0.131664 0.365925 1.654240 -0.804594 0.000000 0.000000 0.000000 2.029437 3.984830 0.713166 -0.089013 4.189815 1.802512 -0.095511 -4.002788 -1.454214 0.000000 0.000000 0.000000 0.375072 0.798781 2.483859 -0.142526 1.627839 -2.546766 0.036018 -1.256518 0.660519 0.000000 0.000000 0.000000 0.819903 0.198180 -0.435203 0.602379 0.689604 2.177926 0.825625 -2.550334 -0.291250 0.000000 0.000000 0.000000 0.044731 1.544410 -0.316117 0.053112 -0.393115 -1.415272 -0.085321 -1.707540 -0.144935 0.000000 0.000000 0.000000 
-1684.139160 860.431580 1097.552002 12.579190 0.551694 -0.016674 -0.500863 -2.013781 -0.830550 -0.428516 0.315789 0.112246 -0.450723 -0.414475 -0.131562 0.367280 1.671048 -0.805164 0.000000 0.000000 0.000000 2.037322 4.003288 0.720584 -0.088755 4.209312 1.812665 -0.095366 -4.003644 -1.453653 0.000000 0.000000 0.000000 0.381211 0.826665 2.498813 -0.141225 1.654482 -2.530203 0.035777 -1.257307 0.658328 0.000000 0.000000 0.000000 0.814694 0.194671 -0.428717 0.597023 0.691134 2.185221 0.820652 -2.539186 -0.290600 0.000000 0.000000 0.000000 0.040812 1.536417 -0.302641 0.050535 -0.385124 -1.422416 -0.088504 -1.703974 -0.146162 0.000000 0.000000 0.000000 
-1684.411987 860.372681 1097.555054 12.589631 0.540422 -0.025224 -0.503118 -2.041945 -0.835036 -0.429586 0.320516 0.112814 -0.452048 -0.420277 -0.133232 0.368746 1.690358 -0.805543 0.000000 0.000000 0.000000 2.047294 4.021384 0.728183 -0.088555 4.228947 1.822179 -0.095185 -4.003736 -1.452737 0.000000 0.000000 0.000000 0.391150 0.855050 2.513920 -0.140108 1.681501 -2.516590 0.035646 -1.258466 0.657515 0.000000 0.000000 0.000000 0.810215 0.190228 -0.423086 0.592294 0.692186 2.192931 0.816295 -2.527524 -0.289539 0.000000 0.000000 0.000000 0.037259 1.528684 -0.290138 0.048147 -0.379359 -1.428412 -0.091314 -1.699756 -0.147180 0.000000 0.000000 0.000000 
-1684.677856 860.325256 1097.558960 12.597308 0.530496 -0.033560 -0.504460 -2.071497 -0.838125 -0.429830 0.323301 0.112416 -0.452423 -0.425448 -0.133675 0.370975 1.713714 -0.807551 0.000000 0.000000 0.000000 2.055730 4.039632 0.732681 -0.088267 4.247953 1.831659 -0.095027 -4.002378 -1.451907 0.000000 0.000000 0.000000 0.402459 0.883478 2.526582 -0.139247 1.708557 -2.506858 0.035666 -1.258593 0.658213 0.000000 0.000000 0.000000 0.806760 0.184103 -0.419560 0.588214 0.694132 2.202881 0.812757 -2.515857 -0.288107 0.000000 0.000000 0.000000 0.034597 1.521710 -0.279608 0.046328 -0.376749 -1.432149 -0.093264 -1.694515 -0.147742 0.000000 0.000000 0.000000 
-1684.935303 860.282410 1097.563965 12.602758 0.521587 -0.041689 -0.505123 -2.103869 -0.841199 -0.429322 0.327484 0.111610 -0.452059 -0.431592 -0.133674 0.373422 1.739358 -0.809797 0.000000 0.000000 0.000000 2.062274 4.058126 0.736424 -0.088039 4.266873 1.840448 -0.094827 -4.000768 -1.450736 0.000000 0.000000 0.000000 0.414828 0.912222 2.537687 -0.138518 1.735822 -2.499215 0.035772 -1.258327 0.659838 0.000000 0.000000 0.000000 0.804173 0.177328 -0.417001 0.584867 0.695883 2.213505 0.809963 -2.503600 -0.286186 0.000000 0.000000 0.000000 0.032410 1.515205 -0.269929 0.044826 -0.375892 -1.434835 -0.094749 -1.688756 -0.148061 0.000000 0.000000 0.000000 
-1685.181519 860.233521 1097.566040 12.607200 0.511718 -0.050244 -0.505149 -2.135883 -0.846565 -0.428016 0.330989 0.112639 -0.450991 -0.437363 -0.134936 0.375021 1.765055 -0.809262 0.000000 0.000000 0.000000 2.065476 4.076628 0.741967 -0.087839 4.285591 1.848801 -0.094613 -3.998803 -1.449416 0.000000 0.000000 0.000000 0.424961 0.940887 2.548543 -0.137777 1.763322 -2.491469 0.035801 -1.259497 0.660884 0.000000 0.000000 0.000000 0.801845 0.173429 -0.413127 0.582036 0.694537 2.223141 0.807484 -2.490129 -0.283806 0.000000 0.000000 0.000000 0.030575 1.509782 -0.259430 0.043738 -0.373492 -1.437332 -0.095946 -1.684870 -0.148365 0.000000 0.000000 0.000000 
-1685.408691 860.174988 1097.566040 12.611260 0.500761 -0.059567 -0.505485 -2.170524 -0.853586 -0.426865 0.336254 0.113027 -0.450087 -0.443712 -0.135971 0.376249 1.791434 -0.807349 0.000000 0.000000 0.000000 2.067603 4.095504 0.750996 -0.087929 4.305363 1.855612 -0.094457 -3.997971 -1.448572 0.000000 0.000000 0.000000 0.435947 0.970524 2.558655 -0.136876 1.791111 -2.481439 0.035686 -1.261979 0.660540 0.000000 0.000000 0.000000 0.799747 0.174538 -0.406782 0.579950 0.686728 2.230499 0.805287 -2.472806 -0.280296 0.000000 0.000000 0.000000 0.029137 1.505688 -0.247455 0.043154 -0.369158 -1.439692 -0.096789 -1.682939 -0.148630 0.000000 0.000000 0.000000 
